<svg xmlns="http://www.w3.org/2000/svg" viewBox="0 0 45.86 51.76"><defs><style>.cls-1{fill:current;}</style></defs><g id="Layer_2" data-name="Layer 2"><g id="Layer_1-2" data-name="Layer 1"><path class="cls-1" d="M22.93,0h0a4.5,4.5,0,0,0-4,2.46l-.34.67-.75.13a4.51,4.51,0,0,0-2.47,7.61l.52.53-.11.73a4.52,4.52,0,0,0,6.5,4.67l.68-.34.68.34a4.52,4.52,0,0,0,6.5-4.67L30,11.4l.52-.53a4.51,4.51,0,0,0-2.47-7.61l-.75-.13L27,2.46a4.5,4.5,0,0,0-4-2.46ZM21.41,10.61v-3h3v3Z"/><path class="cls-1" d="M16.37,19.26c-.2-.12-.39-.25-.58-.39a7.56,7.56,0,0,1-3.11-6.43A7.58,7.58,0,0,1,11,7.93a4.43,4.43,0,0,0-1.74-.35,4.5,4.5,0,0,0-4,2.46l-.35.67-.75.13a4.51,4.51,0,0,0-2.47,7.61l.52.53-.1.74A4.51,4.51,0,0,0,8.6,24.38L9.28,24l.68.34a4.51,4.51,0,0,0,6.41-5.12ZM10.8,18.2h-3v-3h3Z"/><path class="cls-1" d="M29.49,19.26c.2-.12.39-.25.58-.39a7.53,7.53,0,0,0,3.11-6.43,7.58,7.58,0,0,0,1.66-4.51,4.43,4.43,0,0,1,1.74-.35,4.49,4.49,0,0,1,4,2.46l.35.67.75.13a4.51,4.51,0,0,1,2.47,7.61l-.52.53.1.74a4.51,4.51,0,0,1-6.49,4.66L36.58,24l-.68.34a4.51,4.51,0,0,1-6.41-5.12Zm5.57-1.06h3v-3h-3Z"/><polygon class="cls-1" points="14.78 51.76 17.81 42.46 28.05 42.46 31.08 51.76 14.78 51.76"/><path class="cls-1" d="M17.13,39.43l-3-4.71c2-1.07,3.42-2,3.5-2.08,1.5,1.89,2,2.34,5.3,5.83,3.12-3.31,3.78-3.92,5.3-5.83.09.06,1.46,1,3.5,2.08l-3,4.71Z"/><path class="cls-1" d="M22.93,34.05a37.42,37.42,0,0,1-6.07-7.93,7.54,7.54,0,0,0,2.68-5.83,7.55,7.55,0,0,0,3.39-.48,7.55,7.55,0,0,0,3.39.48A7.54,7.54,0,0,0,29,26.12,37.6,37.6,0,0,1,22.93,34.05Z"/><path class="cls-1" d="M15.82,30.21A46.22,46.22,0,0,1,9.4,33.63a46.35,46.35,0,0,1-.35-6.15,1.57,1.57,0,0,0,.23-.09,7.54,7.54,0,0,0,4.92.18A29.09,29.09,0,0,0,15.82,30.21Z"/><path class="cls-1" d="M30.05,30.21a45.64,45.64,0,0,0,6.41,3.42,46.35,46.35,0,0,0,.35-6.15l-.23-.09a7.54,7.54,0,0,1-4.92.18C31.17,28.48,30.61,29.38,30.05,30.21Z"/><path class="cls-1" d="M6.08,30.51A47.1,47.1,0,0,1,0,30.15C.59,28.46.85,27.64,1.57,26c.18.16.37.31.57.46A7.57,7.57,0,0,0,6,27.88C6,28.91,6,29.83,6.08,30.51Z"/><path class="cls-1" d="M39.78,30.51a45.83,45.83,0,0,0,6.08-.36c-.59-1.69-.85-2.51-1.57-4.15-.18.16-.37.31-.57.46a7.57,7.57,0,0,1-3.87,1.42C39.86,28.91,39.82,29.83,39.78,30.51Z"/></g></g></svg>