<svg xmlns="http://www.w3.org/2000/svg" viewBox="0 0 53.58 53.58"><defs><style>.cls-1{fill:current;}</style></defs><g id="Layer_2" data-name="Layer 2"><g id="Layer_1-2" data-name="Layer 1"><path class="cls-1" d="M48.1,53.58H5.24c-.73-.36-1.48-.68-2.18-1.08C1.45,51.56.71,50,0,48.34V22.86a6.5,6.5,0,0,1,1.33-1.49,44.72,44.72,0,0,1,3.8-3.23c2.36-1.58,3.5-3.59,2.93-6.45v-.12a2,2,0,0,1,2.11-2.19,8.53,8.53,0,0,1,1.89,0c2.26.34,3.94-.52,5.6-2.06,2.74-2.55,5.55-5,8.54-7.32h1.19c.43.33.88.63,1.29,1q4.5,3.87,9,7.78a2.18,2.18,0,0,0,1.6.6q2,0,3.93,0c1.61,0,2.3.75,2.32,2.34,0,1,0,2,0,3a1.59,1.59,0,0,0,.64,1.43q1.76,1.42,3.42,2.95c1.35,1.25,3,2.24,4,3.8V48.34A7.85,7.85,0,0,1,48.1,53.58Zm1.32-26.2c-.48,0-.78.37-1.13.59Q38.17,34.53,28.05,41.13a1.91,1.91,0,0,1-2.48,0C18.82,36.71,12,32.33,5.23,27.94c-.34-.22-.62-.62-1.15-.52,0,.17,0,.32,0,.48q0,9.39,0,18.8c0,1.87,1.06,2.84,3,2.84H46.45c2.14,0,3.09-1,3.09-3.15q0-9,0-18A1.74,1.74,0,0,0,49.42,27.38Zm-22.56-14c-4.56,0-9.13,0-13.69,0-.8,0-1.12.2-1.11,1.06,0,4.09,0,8.17,0,12.26a1.51,1.51,0,0,0,.81,1.44q6.55,4.22,13.07,8.49a1.33,1.33,0,0,0,1.69,0q6.51-4.29,13.07-8.49a1.6,1.6,0,0,0,.82-1.55c0-4,0-8,0-12,0-.94-.29-1.21-1.22-1.2C35.83,13.39,31.34,13.37,26.86,13.37ZM21.48,9.28H32.11l-5-4.36c-.23-.19-.43-.12-.63.06ZM8.06,20.87c-.91.78-1.55,1.36-2.22,1.91-.39.32-.38.58.06.79.71.32,1.17,1.18,2.1,1,.05,0,.06-.29.06-.45Zm37.46,0c0,1.32,0,2.3,0,3.28,0,.29,0,.77.48.49a19.59,19.59,0,0,0,1.88-1.23c.3-.2.12-.4-.07-.56Z"/><path class="cls-1" d="M26.76,31.06l-.54-.28c-6.72-3.43-7.72-7.3-7.72-9.3,0-3,2.08-5.28,4.74-5.28a5.65,5.65,0,0,1,3.58,1.29,5.35,5.35,0,0,1,3.52-1.29c2.66,0,4.74,2.32,4.74,5.28,0,4.19-4,7.4-7.78,9.3Z"/></g></g></svg>