<svg xmlns="http://www.w3.org/2000/svg" viewBox="0 0 40.03 52.55"><defs><style>.cls-1{fill:current;}</style></defs><g id="Layer_2" data-name="Layer 2"><g id="Layer_1-2" data-name="Layer 1"><path class="cls-1" d="M35.41,14.06H32.33A7.72,7.72,0,0,1,40,6.36H0a7.71,7.71,0,0,1,7.69,7.7H4.62A4.63,4.63,0,0,0,0,9.45v40a4.64,4.64,0,0,0,4.62-4.63H7.69A7.7,7.7,0,0,1,0,52.55H40a7.71,7.71,0,0,1-7.7-7.7h3.08A4.63,4.63,0,0,0,40,49.48v-40A4.62,4.62,0,0,0,35.41,14.06ZM20.65,40.37l-.67.34-.67-.34c-8.33-4.26-9.58-9-9.58-11.54,0-3.66,2.59-6.53,5.88-6.53a6.55,6.55,0,0,1,1.84.25,7,7,0,0,1,2.6,1.34,6.63,6.63,0,0,1,2.53-1.34,6.55,6.55,0,0,1,1.84-.25c3.29,0,5.87,2.87,5.87,6.53C30.29,34,25.27,38,20.65,40.37Z"/><polygon class="cls-1" points="33.87 0 0 3.29 33.87 3.29 33.87 0"/></g></g></svg>