<svg xmlns="http://www.w3.org/2000/svg" viewBox="0 0 52.29 52.29"><defs><style>.cls-1{fill:current;}</style></defs><g id="Layer_2" data-name="Layer 2"><g id="Layer_1-2" data-name="Layer 1"><circle class="cls-1" cx="18.48" cy="21.45" r="3.06"/><path class="cls-1" d="M13.89,27.57h4.59a6.13,6.13,0,1,1,6.13-6.12,6.13,6.13,0,0,1-6.13,6.12H20a7.63,7.63,0,0,1,5.07,1.93,7.68,7.68,0,0,1,7.18-5H33.8a6.13,6.13,0,1,1,6.13-6.13,6.14,6.14,0,0,1-6.13,6.13h4.6A7.67,7.67,0,0,1,43,26V9.19H9.29V29.11A7.64,7.64,0,0,1,13.89,27.57Z"/><circle class="cls-1" cx="33.8" cy="18.38" r="3.06"/><path class="cls-1" d="M20,30.64H13.89a4.6,4.6,0,0,0-4.6,4.59v1.53H24.61V35.23A4.6,4.6,0,0,0,20,30.64Z"/><path class="cls-1" d="M43,36.76V32.17a4.56,4.56,0,0,0-2-3.81l-3.36,8.4Z"/><polygon class="cls-1" points="37.97 27.57 32.69 27.57 35.33 34.17 37.97 27.57"/><path class="cls-1" d="M33.07,36.76l-3.36-8.4a4.57,4.57,0,0,0-2,3.81v4.59Z"/><path class="cls-1" d="M0,0V52.29H52.29V0ZM46.06,39.83H6.23V6.13H46.06Z"/><path class="cls-1" d="M25.09,29.5Z"/></g></g></svg>