<svg xmlns="http://www.w3.org/2000/svg" viewBox="0 0 60.35 60.36"><defs><style>.cls-1{fill:current;}</style></defs><g id="Layer_2" data-name="Layer 2"><g id="Layer_1-2" data-name="Layer 1"><path class="cls-1" d="M42.38,6.36A7.21,7.21,0,0,0,35.45,0a8.17,8.17,0,0,0-5.28,1.93A8.25,8.25,0,0,0,24.87,0a7.21,7.21,0,0,0-6.94,6.38A30.14,30.14,0,0,0,0,33.84V60.36H60.35V33.84A30.14,30.14,0,0,0,42.38,6.36ZM32,46.21V56.82H28.41V46.21Zm3.53,0H39V42.68H21.34v3.53h3.53V56.82H17.68V48a8.82,8.82,0,0,0-2.83-6.48A25,25,0,0,0,30.18,27.25,25,25,0,0,0,45.51,41.5,8.8,8.8,0,0,0,42.67,48v8.84H35.48ZM28.25,21A21.54,21.54,0,0,1,10.61,38.91V33.84A19.68,19.68,0,0,1,21.77,16.29,28,28,0,0,0,28.25,21ZM10.61,43a5.32,5.32,0,0,1,3.54,5v8.84H10.61ZM49.74,56.82H46.21V48a5.32,5.32,0,0,1,3.53-5Zm0-17.91A21.52,21.52,0,0,1,32.11,21a27.35,27.35,0,0,0,6.46-4.74A19.68,19.68,0,0,1,49.74,33.84ZM24.87,3.54a4.91,4.91,0,0,1,3.84,1.92l1.47,2.39,1.48-2.4a4.75,4.75,0,0,1,3.79-1.91C37.74,3.54,39,5.76,39,7.86,39,11.32,35.78,15,30.18,18c-5.63-3-8.84-6.73-8.84-10.18C21.34,5.76,22.58,3.54,24.87,3.54ZM3.54,33.84A26.42,26.42,0,0,1,18.11,10.21a11.76,11.76,0,0,0,1.41,3.25A23.07,23.07,0,0,0,7.07,33.84v23H3.54Zm53.28,23H53.28v-23A23,23,0,0,0,40.81,13.45a11.88,11.88,0,0,0,1.4-3.26A26.44,26.44,0,0,1,56.82,33.84Z"/></g></g></svg>