<svg xmlns="http://www.w3.org/2000/svg" viewBox="0 0 44.6 54.11"><defs><style>.cls-1{fill:current;}</style></defs><g id="Layer_2" data-name="Layer 2"><g id="Layer_1-2" data-name="Layer 1"><g id="Money"><path class="cls-1" d="M19.24,6.34v6.34h1.58a4.76,4.76,0,0,0,4.76-4.75V6.34Zm19,0V7.93A4.76,4.76,0,0,0,43,12.68H44.6V6.34Zm1.28,25.58a4.74,4.74,0,0,1-4.45,3.17V31.92a1.55,1.55,0,0,0,1.55-1.58,1.59,1.59,0,1,0-3.17,0,4.74,4.74,0,0,1-9.21,1.58h-5V44.6h1.5a7.94,7.94,0,0,1,7.93,7.93v1.58h6.42V52.53A7.94,7.94,0,0,1,43,44.6H44.6V31.92ZM20.74,47.77h-1.5v6.34H25.5V52.53A4.77,4.77,0,0,0,20.74,47.77Zm22.28,0a4.76,4.76,0,0,0-4.76,4.76v1.58H44.6V47.77Zm0-31.92a7.93,7.93,0,0,1-7.93-7.92V6.34H28.75V7.93a7.93,7.93,0,0,1-7.93,7.92H19.24v12.9h5a4.75,4.75,0,0,1,4.48-3.16v3.17a1.58,1.58,0,0,0-1.59,1.57,1.56,1.56,0,0,0,1.55,1.6,1.59,1.59,0,0,0,1.59-1.59,4.75,4.75,0,0,1,9.23-1.59H44.6V15.85Z"/></g><polygon class="cls-1" points="16.07 18.31 16.07 29.47 0 45.53 0 2.24 16.07 18.31"/><polygon class="cls-1" points="2.24 47.77 16.07 33.95 16.07 47.77 2.24 47.77"/><polygon class="cls-1" points="31.71 0 31.71 3.17 16.07 3.17 16.07 13.82 2.24 0 31.71 0"/></g></g></svg>