<svg xmlns="http://www.w3.org/2000/svg" viewBox="0 0 60.86 52.16"><defs><style>.cls-1{fill:current;}</style></defs><g id="Layer_2" data-name="Layer 2"><g id="Layer_1-2" data-name="Layer 1"><path class="cls-1" d="M30.31,22.32l-.81-.42c-10.09-5.15-11.6-11-11.6-14C17.9,3.48,21,0,25,0A8.43,8.43,0,0,1,30.4,1.94,8.08,8.08,0,0,1,35.69,0c4,0,7.12,3.48,7.12,7.93,0,6.29-6.09,11.11-11.69,14Z"/><path class="cls-1" d="M45.71,23.63c-8.27,0-12,5.69-12.82,6.33L38,35.33l2-2.15a7.8,7.8,0,0,1,5.69-2.42,7.37,7.37,0,0,1,7.58,7.13A7.38,7.38,0,0,1,45.71,45,7.8,7.8,0,0,1,40,42.61L26.52,28.46a15.55,15.55,0,0,0-11.37-4.83C6.78,23.63,0,30,0,37.89S6.78,52.16,15.15,52.16s12-5.69,12.83-6.34l-5.1-5.34h0l-2,2.15A7.78,7.78,0,0,1,15.15,45a7.37,7.37,0,0,1-7.57-7.14,7.36,7.36,0,0,1,7.57-7.13,7.78,7.78,0,0,1,5.69,2.42l13.5,14.14a15.52,15.52,0,0,0,11.37,4.84c8.37,0,15.15-6.39,15.15-14.27S54.08,23.63,45.71,23.63Z"/><path class="cls-1" d="M22.87,40.47h0Z"/><polygon class="cls-1" points="22.87 40.47 22.86 40.47 22.87 40.47 22.87 40.47"/><path class="cls-1" d="M22.87,40.47Z"/><polygon class="cls-1" points="22.85 40.46 22.85 40.46 22.85 40.46 22.85 40.46"/></g></g></svg>