<svg xmlns="http://www.w3.org/2000/svg" viewBox="0 0 36.76 48.25"><defs><style>.cls-1{fill:current;}</style></defs><g id="Layer_2" data-name="Layer 2"><g id="Layer_1-2" data-name="Layer 1"><path class="cls-1" d="M22.55,13.76a3.7,3.7,0,0,0-3,1.5L18.4,17.13l-1.19-1.82a4,4,0,0,0-3.12-1.55c-1.83,0-2.82,1.78-2.82,3.45,0,2.75,2.58,5.69,7.11,8.14,3.11-1.68,7-4.6,7-8.14C25.36,15.54,24.38,13.76,22.55,13.76Z"/><path class="cls-1" d="M36.76,18.38a18.38,18.38,0,1,0-33.1,11l12.51,16H5.65v2.82H31.1V45.43H20.58l12.51-16A18.23,18.23,0,0,0,36.76,18.38ZM19,28.21l-.64.33-.64-.33c-8.09-4.13-9.3-8.66-9.3-11,0-3.52,2.48-6.28,5.65-6.28a6.69,6.69,0,0,1,4.26,1.54,6.42,6.42,0,0,1,4.2-1.54c3.16,0,5.64,2.76,5.64,6.28C28.19,19.57,27,24.14,19,28.21Z"/></g></g></svg>