<?xml version="1.0" encoding="UTF-8" standalone="no"?>
<svg xmlns:rdf="http://www.w3.org/1999/02/22-rdf-syntax-ns#" xmlns="http://www.w3.org/2000/svg" height="1193.1pt" width="1091.3pt" version="1.1" xmlns:cc="http://creativecommons.org/ns#" xmlns:dc="http://purl.org/dc/elements/1.1/" viewBox="0 0 1091.2601 1193.0637">
<g>
<path d="m789.27 0c-36.359 55.558-80.913 112.27-86.544 180.95-2.1376 52.604 22.003 102.3 50.081 145.27 43.506-37.589 76.551-91.26 78.011-149.98 2.72-62.28-45.84-113.56-41.55-176.24zm277.49 43.07c-0.283-0.03105-0.688 0.10726-1.2406 0.45469-10.738 8.3816-22.817 14.838-35.212 20.362-4.4268 1.8563-8.7189 3.6981-13.177 5.3063-20.524 6.2234-41.458 10.968-62.248 16.195-12.049 3.981-23.804 8.8475-35.164 14.448-5.0665 2.7968-9.8818 5.9985-14.77 9.0563-6.8293 5.551-13.591 11.181-19.883 17.295-32.384 32.342-51.899 76.709-57.339 121.84-0.973 3.0449-1.3963 6.2554-1.2344 9.4312-1.4743 1.1265-1.7614 7.6765 1.7141 6.0891-37.024 29.694-70.265 64.595-96.005 104.56 5.7157-0.5611 11.463-1.1241 17.203-1.4016 4.9954-8.9418 10.481-17.606 16.756-25.728 14.232 13.593 32.131 23.065 46.786 35.669 12.608 4.6326 24.206 11.489 35.641 18.425 27.228 10.444 56.721 16.089 85.855 11.845 55.938-8.0039 108.62-35.676 156.83-60.853-47.486-2.4411-84.872-35.078-126.55-53.761-19.571-8.05-40.098-11.68-60.648-11.628-45.211 0.11501-90.531 18.055-126.02 45.967 12.826-22.418 35.944-44.913 57.048-63.52 43.697-4.2667 89.116-11.204 126.13-36.634 4.44-2.8859 8.7296-5.8924 13.07-9.0078 4.4372-4.3551 8.9815-8.6154 13.319-13.102 13.248-14.072 23.86-30.415 32.994-47.406 3.2568-5.9803 6.3536-12.056 9.3985-18.173 2.184-4.9074 4.469-9.7809 6.6766-14.709 1.2185-4.0658 3.058-7.8552 4.839-11.728 0.9172-2.2911 1.8914-4.5738 2.911-6.8547 7.3452-16.72 12.109-34.45 19.977-50.97 0.3822-2.7573 4.3278-11.248 2.3468-11.466zm-610.25 514.52c-81.61 32.26-148.84 99.23-181.76 180.55-48.03 14.99-98.62 33.36-131.15 74-42.31 54.81-46.731 127.07-58.161 192.86 28.57-35.97 73.32-50.59 112.25-71.77 63.04-37.01 88.97-115.25 82.55-185.15 11.05-26.02 26.71-51.259 46.33-71.359-36.24 53.6-51.77 125.72-23.05 186.07 11.78 24.47 29.521 45.45 42.911 69.03 3.82 6.0701 6.81 12.609 9.8 19.139 2.5 5.43 4.1593 11.161 6.1093 16.831 2.92 6.69 3.4504 14.029 4.9704 21.109 4.02-4.88 4.7506-12.28 7.8906-17.98 6.89-16.12 12.93-32.59 19.2-48.95 1.1613-3.2577 2.2459-6.5459 3.3266-9.8359 15.998 15.371 31.033 32.206 51.866 40.978 43.44 20.32 94.98 12.99 136.82-7.8797-23.72-34.19-53.14-69.091-94.52-81.411-12.94-4.34-26.317-5.6769-39.792-5.7094-13.193-0.032-26.478 1.184-39.539 2.061 4.6758-23.742 7.4887-47.955 2.4484-71.914-9.79-49.76-42.979-90.5-76.809-126.5 35.05-36.37 77.98-64.93 125.23-82.85-2.51-7.06-4.7403-14.169-6.9203-21.319zm-259.16 52.952c-6.4132-0.0917-12.87 0.20064-19.367 0.92812-69.78 8.91-123.26 59.319-178.02 98.989 64.13-9.3 119.86 38.4 183.8 28.84 56.84-6.55 108.03-42.48 140.51-88.17-39.296-20.501-82.03-39.946-126.92-40.588zm687.12 182.53c-6.35 4.31-12.72 8.5906-19 12.991-10.16 5.36-20.45 10.439-30.95 15.109-14.07 4.95-28.46 8.8397-43.08 11.73-7.73 5.09-12.571 13.651-20.031 19.241-1.42 1.2-2.7791 2.4794-4.1391 3.7594-0.96 0.68-1.9106 1.3813-2.8406 2.1313 45.39 44.42 111.01 74.659 175.23 59.359 46.36-12.35 89.331-41.349 139.21-36.509-59.74-37.59-120.07-88.011-194.4-87.811zm-126.23 69.82c-2.61 1.8-5.2512 3.58-7.8812 5.35-0.45 0.3-1.3594 0.9-1.8094 1.2-1.79 1.13-3.5297 2.3403-5.2797 3.5203-5.05 2.56-10.07 5.18-14.8 8.3-3.12 1.1-6.2303 2.2403-9.2203 3.6703-2.87 1.14-5.7694 2.1594-8.6094 3.3594-20.51 30.42-38.76 64.051-41.88 101.29-4.09 69.16 32.499 132.96 60.639 192.38 3.36-43.11 29.26-78.881 49.13-115.71 30.09-57.19 18.111-128.58-16.409-181.13 13.49 13.64 26.03 31.83 39.4 46.93-1.6 53.74 13.169 110.51 50.689 150.45 42.48 48.87 116.28 48.26 159.35 96.55-16.74-68.62-25.74-146.96-80.17-197.73-35.36-31.63-82.56-45.749-127.97-55.389 0.58-1.79-2.5309 0.59968-3.0609-0.82032-15.76-19.51-28.089-41.53-42.119-62.22zm-110.18 36.2c-3.08 0.0176-6.1562 0.0544-9.2312 0.10936-33.27 35.46-71.67 66.141-114.03 90.081-18.064-4.77-37.45-7.841-56.759-8.0547-32.182-0.35624-64.153 7.2218-89.441 28.084-32.49 26.9-56.189 62.51-80.309 96.67 34.36-15.83 73.119-9.0806 109.61-11.291 49.56-6.5 90.64-44.5 109.6-89.48 2.48-3.3 4.1797-7.1509 5.2297-11.111 12.54-6.19 24.83-14.869 37.92-19.159-38.43 27.47-66.8 73.341-61.95 121.89 3.24 31.88 9.5497 64.85-0.3203 96.23 38.01-32.65 79.91-65.65 99.87-113.1 15.19-39.95 5.1403-83.831-5.8297-123.54-2.49 0.62-4.7597 1.8403-6.9297 3.1703 23.22-18.73 52.24-38.141 71.83-60.491-3.095-0.0248-6.1794-0.0272-9.2594-0.01z" fill="#000"/>
<path d="m789.27 0c-36.359 55.558-80.913 112.27-86.544 180.95-2.1376 52.604 22.003 102.3 50.081 145.27 43.506-37.589 76.551-91.26 78.011-149.98 2.73-62.28-45.84-113.56-41.55-176.24zm277.49 43.07c-0.283-0.03105-0.688 0.10726-1.2406 0.45469-10.738 8.3816-22.817 14.838-35.212 20.362-4.4268 1.8563-8.7189 3.6981-13.177 5.3063-20.524 6.2234-41.458 10.968-62.248 16.195-12.049 3.981-23.804 8.8475-35.164 14.448-5.0665 2.7968-9.8818 5.9985-14.77 9.0563-6.8293 5.551-13.591 11.181-19.883 17.295-32.384 32.342-51.899 76.709-57.339 121.84 14.286-56.531 49.291-111.42 105.98-132.7 29.148-9.4339 60.934-16.337 88.248-27.495-14.527 36.267-30.93 73.713-55.434 105.01-29.383 36.394-75.591 55.611-121.17 60.888-3.6111 2.9638-6.8805 6.2368-10.247 9.389 43.697-4.2667 89.116-11.204 126.13-36.634 4.4399-2.8859 8.7296-5.8924 13.07-9.0078 4.4373-4.3551 8.9815-8.6154 13.319-13.102 13.248-14.072 23.86-30.415 32.994-47.406 3.2567-5.9803 6.3535-12.056 9.3984-18.173 2.184-4.9074 4.469-9.7809 6.6766-14.709 1.2185-4.0658 3.058-7.8552 4.839-11.728 0.9172-2.2911 1.8914-4.5738 2.911-6.8547 7.3452-16.72 12.11-34.45 19.977-50.97 0.3823-2.7573 4.3278-11.248 2.3468-11.466zm-290.23 20.278c7.6651 35.673 27.665 67.273 34.997 102.98 10.566 57.381-16.505 116.01-57.759 154.98-25.181-43.524-47.127-95.351-33.686-146.4 11.061-40.511 33.607-76.797 56.448-111.57zm87.858 173.46c-3.3698 1.8575-6.657 4.0059-9.9281 5.9406 0.4127 0.1486 1.2296 0.42717 1.6515 0.57187 0.4008 0.121 1.2107 0.38298 1.6063 0.51718 1.6273-1.857 12.45-6.8123 6.6703-7.0297zm-26.336 19.178c-3.8883 0.40411-7.7915 0.67262-11.608 1.4703-1.4743 1.1265-1.7614 7.6765 1.7141 6.0891 3.3079-2.4299 6.5335-5.0742 9.8938-7.5594zm65.97 24.684c-45.211 0.11501-90.531 18.055-126.02 45.967-3.5197 2.7718-6.1639 6.4618-8.8203 9.9719 39.432-28.784 88.953-47.818 138.24-39.977 44.631 6.3746 78.697 38.918 119.91 54.448-44.669 19.88-91.481 43.224-141.74 40.838-44.416-2.6986-82.953-27.835-117.32-54.075-0.7536 1.055-1.4538 2.1076-2.1562 3.1297 14.232 13.593 32.131 23.065 46.786 35.669 12.608 4.6326 24.206 11.489 35.641 18.425 27.229 10.444 56.721 16.089 85.855 11.845 55.938-8.0039 108.62-35.676 156.83-60.853-47.486-2.4411-84.872-35.078-126.55-53.761-19.571-8.05-40.098-11.68-60.648-11.628z" fill="#000"/>
<path d="m776.57 63.348c-22.841 34.769-45.387 71.055-56.448 111.57-13.441 51.046 8.5052 102.87 33.686 146.4 41.254-38.97 68.325-97.6 57.759-154.98-7.3317-35.708-27.332-67.308-34.997-102.98zm245.38 24.491c-27.314 11.158-59.1 18.061-88.248 27.495-56.689 21.278-91.693 76.165-105.98 132.7-0.973 3.0449-1.3963 6.2554-1.2344 9.4312 3.8164-0.7977 7.7196-1.0662 11.608-1.4703 6.1847-3.9657 11.942-8.5438 18.059-12.666-0.4219-0.1447-1.2388-0.42327-1.6515-0.57187-6.6831 3.669-13.193 7.5903-19.805 11.348 36.571-55.824 90.577-97.805 148.98-128.98-32.842 42.964-71.726 84.047-119.25 111.7 5.7794 0.2174-5.043 5.1727-6.6703 7.0297-4.2079 3.2214-8.2936 6.5749-12.417 9.8906 45.581-5.2761 91.789-24.493 121.17-60.888 24.505-31.294 40.907-68.74 55.434-105.01zm-251.83 37.501c6.9398 21.805 18.371 42.206 22.755 64.777 9.0493 44.356-9.165 89.795-36.917 123.96-16.14-29.924-29.221-65.275-23.859-100.17 4.8538-32.08 20.194-61.869 38.022-88.57zm114.22 169.52c-41.432 0.11755-81.886 17.464-115.16 41.75-0.2277 0.3052-0.6881 0.92907-0.9157 1.2344 34.363 26.24 72.899 51.376 117.32 54.075 50.261 2.3866 97.073-20.957 141.74-40.838-41.209-15.53-75.276-48.074-119.91-54.448-7.7004-1.2252-15.407-1.7952-23.08-1.7734zm-20.65 15.834c16.13 0.0452 32.2 2.8821 47.466 9.1047 18.151 8.1871 35.631 18.831 52.395 28.978-6.5728 5.2115-18.037 8.1773-26.717 11.761-20.453 6.8679-41.478 13.798-63.302 13.731-35.962 1.0151-69.734-16.31-97.719-37.439 26.066-16.133 57.082-26.222 87.876-26.136zm1.7703 495.37c-10.16 5.36-20.45 10.439-30.95 15.109 42.78-3.42 81.559 17.48 117.24 38.22-19.35 9.39-40.09 17.16-60.8 23.22-41.91 9.42-86.11-4.8203-119.55-30.47-1.42 1.2-2.7791 2.4794-4.1391 3.7594 31.44 25.74 69.149 46.491 110.61 48.091 48.4 4.6 90.641-27.199 135.29-36.609-44.01-29.19-92.51-60.93-147.7-61.32zm-116.92 63.38c-1.79 1.13-3.5297 2.3403-5.2797 3.5203 26.27 42.57 31.619 99.829 5.8391 143.86-7.83 12.53-14.539 25.94-22.489 38.25-13.34-34.08-28.009-69.689-23.409-107.06 2.04-24.31 14.179-45.67 25.259-66.75-3.12 1.1-6.2303 2.2403-9.2203 3.6703-16.16 26.05-31.329 53.919-34.039 85.059-4.91 50.25 18.009 97.129 37.489 141.96 0.65 1.83 2.76 6.2903 4.05 2.3703 13.36-36.76 41.571-66.719 50.791-105.11 12.81-48.57-4.1806-98.27-28.991-139.77zm53.93 64.009c1.5 59.91 30.481 122.5 84.091 152.7 28.14 14.61 58.54 24.701 85.7 41.281-13.91-51.02-27.24-106.29-66.55-144.44-27.27-24.15-62.05-40.681-97.43-47.891 1.04 1 2.1091 2.02 3.1891 3.05 54.73 36.81 96.04 89.92 128.23 146.85-50.68-36.13-95.089-81.949-124.31-137.29-3.64-5.34-7.4603-10.701-12.92-14.261z" fill="#000"/>
<path d="m856.15 243.33c-6.1173 4.1218-11.875 8.6999-18.059 12.666-3.3603 2.4852-6.5859 5.1295-9.8938 7.5594-37.024 29.694-70.265 64.595-96.005 104.56 5.7157-0.5611 11.463-1.1241 17.203-1.4016 4.9954-8.9418 10.481-17.606 16.756-25.728 0.7024-1.0221 1.4026-2.0747 2.1562-3.1297 0.2276-0.3053 0.688-0.92917 0.9157-1.2344 2.6564-3.5101 5.3006-7.2001 8.8203-9.9719 12.826-22.418 35.944-44.913 57.048-63.52 3.3664-3.1522 6.6358-6.4252 10.247-9.389 4.1236-3.3157 8.2093-6.6692 12.417-9.8906-0.3956-0.1342-1.2055-0.39618-1.6063-0.51718zm-658.77 367.22c-6.4132-0.0917-12.87 0.20063-19.367 0.92812-69.77 8.9-123.25 59.31-178.01 98.98 64.13-9.3 119.86 38.4 183.8 28.84 56.84-6.55 108.03-42.48 140.51-88.17-39.296-20.501-82.03-39.946-126.92-40.588zm15.278 12.267c37.397-0.47992 73.237 14.49 106.61 30.231-36.45 45.15-95.639 76.039-154.79 67.819-33.96-6.18-65.37-22.329-99.72-27.009-0.97-3.25 4.449-3.91 5.639-6.05 39.55-27.85 80.75-59.54 130.6-64.33 3.901-0.39656 7.7877-0.61129 11.656-0.66094zm125.58 38.95c-4.44 4.52-7.7012 10.011-11.631 14.961-36.24 53.6-51.77 125.72-23.05 186.07 11.78 24.47 29.521 45.45 42.911 69.03 3.82 6.07 6.81 12.609 9.8 19.139 2.5 5.43 4.1594 11.161 6.1094 16.831 2.92 6.69 3.4503 14.029 4.9703 21.109 4.02-4.88 4.7506-12.28 7.8906-17.98 6.89-16.12 12.93-32.59 19.2-48.95 3.8-10.66 6.7294-21.67 11.659-31.87 7.39-33.06 16.13-67.711 8.95-101.84-9.79-49.76-42.979-90.5-76.809-126.5zm-1.6703 5.2812c29.24 30.71 55.75 67.72 62.02 110.73 5.99 50.05-12.681 100.23-31.161 144.96-18.63-39.12-53.899-72-62.409-116.38-10.07-48.5 4.76-98.749 31.55-139.31zm-61.002 71.039c-0.2481 0.008-0.5075 0.0291-0.7781 0.0609-48.03 14.99-98.62 33.36-131.15 74-42.31 54.81-46.731 127.07-58.161 192.86 28.57-35.97 73.32-50.59 112.25-71.77 63.04-37.01 88.97-115.25 82.55-185.15l-0.85-0.4c0.37 62.18-25.99 128.36-82.02 160.23-23.29 13.03-48.269 23.211-70.069 38.831-2.18 1.16-8.2106 4.7394-4.4406-2.0906 10.25-49.05 19.75-102.3 54.32-140.93 27.19-29.08 64.249-47.911 102.11-58.811 1.1531-4.3875-0.04-6.9471-3.761-6.8297zm482.7 124.81c-2.61 1.8-5.2512 3.58-7.8812 5.35 4.08 5.51 7.7709 11.26 11.761 16.88 13.49 13.64 26.03 31.83 39.4 46.93l0.9594 1.4c5.46 3.56 9.2803 8.921 12.92 14.261 3.97-2.4-3.0803-6.691-3.9203-9.561-1.08-1.03-2.1491-2.05-3.1891-3.05-2.27-2.5-6.1203-5.3587-4.8703-9.1687 0.58-1.79-2.5309 0.59968-3.0609-0.82032-15.76-19.51-28.089-41.53-42.119-62.22z" fill="#000"></path>
<path d="m456.55 557.59c-81.61 32.26-148.84 99.23-181.76 180.55 4.33-0.51 5.7691 2.0888 4.5391 6.7688 0.03 0.69 0.08 2.0703 0.1 2.7703l0.85 0.4c11.05-26.02 26.71-51.259 46.33-71.359 3.93-4.95 7.1912-10.441 11.631-14.961 35.05-36.37 77.98-64.93 125.23-82.85-2.51-7.06-4.7403-14.169-6.9203-21.319zm-220.28 78.547c-2.7382 0.0113-5.4819 0.12-8.2297 0.33281-38.21 2.42-72.771 23.959-102.41 45.409 28.8 9.98 60.27 23.751 92.22 19.511 35.94-2.9 68.49-21.89 94.73-45.65-23.898-10.775-49.84-19.712-76.309-19.603zm100.59 38.233c-19.24 35.97-27.29 79.409-14.85 118.96 8.34 25.36 25.181 47.331 40.341 68.491 10.17-32.04 21.51-65.18 17.55-99.32-2.93-33.26-22.921-64.62-43.041-88.13zm-65.38 75.62-0.6797 0.32969c-52.04 40.17-90.61 95.419-118.48 154.51 51.19-41.19 93.969-93.859 119.16-154.84zm376.61 149.1c-3.08 0.0175-6.1563 0.0544-9.2313 0.10936-33.27 35.46-71.67 66.141-114.03 90.081-2.79 1.63-5.53 3.3897-8.5 4.6797-1.32 0.44-2.6503 0.8-3.9703 1.2-1.48 1.1-7.0488 4.0397-2.6188 4.2797 4.08-2.29 8.1288-5.6006 13.019-5.3406 12.54-6.19 24.83-14.869 37.92-19.159 8.15-5.33 16.431-10.45 24.841-15.35 23.22-18.73 52.24-38.141 71.83-60.491-3.095-0.025-6.1793-0.0269-9.2593-0.009z" fill="#000"></path>
<path d="m212.67 622.81c-3.8686 0.0496-7.7553 0.26438-11.656 0.66094-49.85 4.79-91.05 36.48-130.6 64.33-1.19 2.14-6.609 2.8-5.639 6.05 34.35 4.68 65.76 20.829 99.72 27.009 59.15 8.22 118.34-22.669 154.79-67.819-33.377-15.742-69.217-30.711-106.61-30.231zm23.605 13.328c26.47-0.10883 52.412 8.8278 76.309 19.603-26.24 23.76-58.79 42.75-94.73 45.65-31.95 4.24-63.42-9.5309-92.22-19.511 29.64-21.45 64.201-42.989 102.41-45.409 2.7478-0.21281 5.4915-0.32156 8.2297-0.33281zm100.3 30.903c-26.79 40.56-41.62 90.809-31.55 139.31 8.51 44.38 43.779 77.26 62.409 116.38 18.48-44.73 37.151-94.909 31.161-144.96-6.27-43.01-32.78-80.02-62.02-110.73zm0.2891 7.3297c20.12 23.51 40.111 54.87 43.041 88.13 3.96 34.14-7.38 67.28-17.55 99.32-15.16-21.16-32.001-43.131-40.341-68.491-12.44-39.55-4.39-82.989 14.85-118.96zm-57.53 70.539c-37.86 10.9-74.919 29.731-102.11 58.811-34.57 38.63-44.07 91.88-54.32 140.93-3.77 6.83 2.2606 3.2506 4.4406 2.0906 21.8-15.62 46.779-25.801 70.069-38.831 56.03-31.87 82.39-98.05 82.02-160.23-0.02-0.7-0.07-2.0803-0.1-2.7703zm-7.85 5.0812c-25.19 60.98-67.969 113.65-119.16 154.84 27.87-59.09 66.44-114.34 118.48-154.51l0.6797-0.32969z" fill="#000"></path>
<path d="m884.5 793.07c-6.35 4.31-12.72 8.5906-19 12.991 55.19 0.39 103.69 32.13 147.7 61.32-44.65 9.41-86.891 41.209-135.29 36.609-41.46-1.6-79.169-22.351-110.61-48.091-0.96 0.68-1.9106 1.3813-2.8406 2.1313 45.39 44.42 111.01 74.659 175.23 59.359 46.36-12.35 89.331-41.349 139.21-36.509-59.74-37.59-120.07-88.011-194.4-87.811zm-134.11 75.17c-0.45 0.3-1.3594 0.9-1.8094 1.2 24.81 41.5 41.801 91.2 28.991 139.77-9.22 38.39-37.431 68.349-50.791 105.11-1.29 3.92-3.4-0.5403-4.05-2.3703-19.48-44.83-42.399-91.709-37.489-141.96 2.71-31.14 17.879-59.009 34.039-85.059-2.87 1.14-5.7694 2.1594-8.6094 3.3594-20.51 30.42-38.76 64.051-41.88 101.29-4.09 69.16 32.499 132.96 60.639 192.38 3.36-43.11 29.26-78.881 49.13-115.71 30.09-57.19 18.111-128.58-16.409-181.13-3.99-5.62-7.6809-11.37-11.761-16.88zm53.061 57.691c-1.25 3.81 2.6003 6.6687 4.8703 9.1687 35.38 7.21 70.16 23.741 97.43 47.891 39.31 38.15 52.64 93.421 66.55 144.44-27.16-16.58-57.56-26.671-85.7-41.281-53.61-30.2-82.591-92.79-84.091-152.7l-0.9594-1.4c-1.6 53.74 13.169 110.51 50.689 150.45 42.48 48.87 116.28 48.26 159.35 96.55-16.74-68.62-25.74-146.96-80.17-197.73-35.36-31.63-82.56-45.749-127.97-55.389z" fill="#000"></path>
<path d="m464.93 874.86c-21.277-0.0708-42.935 3.2744-63.717 5.3516-1.56 2.31-3.1094 4.629-4.6094 6.989 20.75 14.99 35.461 36.941 56.941 51.011 37.37 25.51 87.489 23.97 127.96 6.8297-15.63-23.66-36.64-45.31-62-58.8-17.32-8.5969-35.799-11.319-54.573-11.381zm16.664 17.283c37.636 0.26888 73.927 21.018 94.509 51.878-38.17 11.3-83.88 7.1903-112.85-22.53-7.6-9.29-18.639-15.881-25.259-25.591 8.4-0.17 16.71-1.51 25.08-2.2 6.1678-1.0982 12.362-1.6018 18.52-1.5578zm107.5 68.639c-37.75 19.85-68.37 57.329-73.47 100.62-1.62 28.16 5.8594 57.72 6.6094 84.57 33.42-27.83 69.57-62.27 76.12-108 1.13-25.42-0.019-53.949-9.2594-77.189zm-2.6109 4.9797c7.81 25.84 9.0209 59.509-4.9391 85.459-11.07 19.61-26.201 37.51-43.291 51.88-0.36-15.08-4.16-29.849-3.85-44.959-1.17-37.43 22.09-71.89 52.08-92.38zm-104.05 24.117c-29.594-0.16064-59.924 8.4006-82.666 27.562-21.22 16.76-37.979 38.211-54.639 59.291-1.28 1.99-3.2803 6.93 2.9297 3.25 27.62-5.08 56.37 2.6788 83.53-5.7312 37.19-9.12 65.76-37.809 85.95-69.039 2.48-3.3 4.1797-7.1509 5.2297-11.111-4.89-0.26-8.9388 3.0506-13.019 5.3406-37.92 30.76-83.72 50.339-131.15 60.909 39.32-30.72 84.399-55.519 133.77-65.189 1.32-0.4 2.6503-0.76 3.9703-1.2-10.856-2.6213-22.324-4.02-33.905-4.0828z" fill="#000"/>
<path d="m481.59 892.15c-6.1586-0.0439-12.352 0.4596-18.52 1.5578-8.37 0.69-16.68 2.03-25.08 2.2 6.62 9.71 17.659 16.301 25.259 25.591 28.97 29.72 74.68 33.83 112.85 22.53-20.582-30.86-56.873-51.609-94.509-51.878zm104.89 73.619c-29.99 20.49-53.25 54.95-52.08 92.38-0.31 15.11 3.49 29.879 3.85 44.959 17.09-14.37 32.221-32.27 43.291-51.88 13.96-25.95 12.749-59.619 4.9391-85.459zm-74.12 29.4c-49.37 9.67-94.449 34.469-133.77 65.189 47.43-10.57 93.23-30.149 131.15-60.909-4.43-0.24 1.1388-3.1797 2.6188-4.2797z" fill="#000"/>
<path d="m742.82 304.04c-6.6999-0.05-13.391 0.24969-20.031 1.1797-17.23 4.29-34.56 9.7297-49.22 20.08-3.45 1.73-7.5203 6.9509-11.37 3.1609-16.54-8.79-34.13-16.41-53.03-17.73-50.53-6.46-100.9 24.789-121.76 70.419-4.01 9.13-5.8394 19.101-10.059 28.111 1.74 0.71 0.8594 2.0394 0.1094 3.2094-34.68 16.38-69.45 38.291-92.25 70.711-12.16 15.01-17.749 34.539-27.819 50.169-1.49 19.58-10.97 40.3-8.35 61.12 0.03 5.54 0.2197 11.1 0.6797 16.65 0.95 7.29 1.8794 14.591 3.0594 21.861 6.21 28.15 18.801 54.88 36.861 77.38 1.7 2.11 3.1797 4.3891 4.6297 6.6891 1.48 1.36 2.98 2.7212 4.4 4.1812l1.1203 1.0797c3.95 3.88 7.89 7.76 11.7 11.8 0.67 0.69 1.39 1.3491 2.15 1.9891 0.97 0.71 1.9488 1.4409 2.9188 2.2109 2.82 2.15 5.3403 4.5697 8.0203 6.9797 1.45 1.04 2.95 2.0103 4.45 3.0203 8.27 6.69 19.821 9.9497 27.111 17.33 28.57 74.73 101.77 131.59 182.72 133.56 6.15-0.11 12.301-0.15 18.491-0.1 18.13-1.25 36.11-4.9794 53.32-10.809 2.84-1.2 5.7394-2.2194 8.6094-3.3594 2.99-1.43 6.1003-2.5703 9.2203-3.6703 4.73-3.12 9.75-5.74 14.8-8.3 1.75-1.18 3.4897-2.3903 5.2797-3.5203 0.45-0.3 1.3594-0.9 1.8094-1.2 2.63-1.77 5.2713-3.55 7.8813-5.35 2.1-1.58 4.089-3.2994 6.189-4.8594 0.93-0.75 1.8806-1.4513 2.8406-2.1313 1.36-1.28 2.719-2.5594 4.139-3.7594 7.46-5.59 12.301-14.151 20.031-19.241 14.62-2.89 29.01-6.7797 43.08-11.73 10.5-4.67 20.79-9.7494 30.95-15.109 6.28-4.4 12.65-8.6806 19-12.991 43.41-34.59 73.31-87.909 73.98-144.06 0.46-13.68-0.60064-27.341-2.7406-40.841-1.85-7.25-3.55-14.55-5.3-21.78-3.5-9.85-8.039-19.3-11.989-28.95-7.07-12.78-19.16-24.091-15.23-40.191 0.9-17.04-5.3803-33.349-11.97-48.739-9.71-19.08-24.051-35.41-40.791-48.57-2.45-25.61-12.07-49.87-27.1-70.65-2.38-2.94-5.1397-5.5806-7.7797-8.2406-12.72-11.79-27-22.13-43.23-28.48-9.54-3.53-19.38-6.1794-29.45-7.6094-6.67-0.47-13.378-0.87032-20.078-0.92032z" fill="#000"/>
<path d="m742.82 304.04c-6.7-0.05-13.391 0.24969-20.031 1.1797-17.23 4.29-34.56 9.7297-49.22 20.08-3.45 1.73-7.5203 6.9509-11.37 3.1609-16.54-8.79-34.13-16.41-53.03-17.73-50.53-6.46-100.9 24.789-121.76 70.419-4.01 9.13-5.8394 19.101-10.059 28.111 1.74 0.71 0.8594 2.0394 0.1094 3.2094-34.68 16.38-69.45 38.291-92.25 70.711-12.16 15.01-17.749 34.539-27.819 50.169-1.49 19.58-10.97 40.3-8.35 61.12 0.03 5.54 0.2197 11.1 0.6797 16.65 0.95 7.29 1.8794 14.591 3.0594 21.861 6.21 28.15 18.801 54.88 36.861 77.38 1.7 2.11 3.1797 4.3891 4.6297 6.6891 1.48 1.36 2.98 2.7212 4.4 4.1812l1.1203 1.0797c3.95 3.88 7.89 7.76 11.7 11.8 0.67 0.69 1.39 1.3491 2.15 1.9891 0.97 0.71 1.9488 1.4409 2.9188 2.2109 2.82 2.15 5.3403 4.5697 8.0203 6.9797 1.45 1.04 2.95 2.0103 4.45 3.0203 8.27 6.69 19.821 9.9497 27.111 17.33 28.57 74.73 101.77 131.59 182.72 133.56 6.15-0.11 12.301-0.15 18.491-0.1 18.13-1.25 36.11-4.9794 53.32-10.809 2.84-1.2 5.7394-2.2194 8.6094-3.3594 2.99-1.43 6.1003-2.5703 9.2203-3.6703 4.73-3.12 9.75-5.74 14.8-8.3 1.75-1.18 3.4897-2.3903 5.2797-3.5203 0.45-0.3 1.3594-0.9 1.8094-1.2 2.63-1.77 5.2713-3.55 7.8813-5.35 2.1-1.58 4.0891-3.2994 6.1891-4.8594 0.93-0.75 1.8806-1.4513 2.8406-2.1313 1.36-1.28 2.7191-2.5594 4.1391-3.7594 7.46-5.59 12.301-14.151 20.031-19.241 14.62-2.89 29.01-6.7797 43.08-11.73 10.5-4.67 20.79-9.7494 30.95-15.109 6.28-4.4 12.65-8.6806 19-12.991 43.41-34.59 73.31-87.909 73.98-144.06 0.46-13.68-0.60064-27.341-2.7406-40.841-1.85-7.25-3.55-14.55-5.3-21.78-3.5-9.85-8.039-19.3-11.989-28.95-7.07-12.78-19.16-24.091-15.23-40.191 0.9-17.04-5.3803-33.349-11.97-48.739-9.71-19.08-24.051-35.41-40.791-48.57-2.45-25.61-12.07-49.87-27.1-70.65-2.38-2.94-5.1397-5.5806-7.7797-8.2406-12.72-11.79-27-22.13-43.23-28.48-9.54-3.53-19.38-6.1794-29.45-7.6094-6.67-0.47-13.378-0.87032-20.078-0.92032zm-15.039 30.075c45.825-0.19052 91.703 26.958 110.78 68.995-14.09-4.7-28.77-6.6006-43.43-8.2406-25.85-36.5-71.269-53.509-114.84-51.509 10.75-5.94 23.769-6.98 35.859-8.6 3.8664-0.41641 7.7493-0.62917 11.633-0.64532zm-131.86 11.01c38.562 0.18844 76.896 19.471 99.486 51.173 4.16 10.18 16.309 10.12 24.359 15.67-4.37-20.88-14.55-39.89-26.98-57.03 55.08 13.37 95.131 69.45 89.591 126-3.99 42.32-30.16 82.95-68.88 101.25 28.83-22.01 34.399-66.16 13.559-95.15-2.19-2.14-4.42-4.4494-5.5-7.3594-5.04-2.42-10.06-10.171-16.77-12.761 0.51 2.39 0.68 4.8509 0.7 7.3109 14.74 16.22 20.111 42.139 13.641 63.619-10.63 38.66-56.591 59.881-93.541 46.231 14.42 11.55 34.431 13.58 51.961 13.73-23.8 16.38-56.91 17.689-81.02 1.4094-32.14-20.55-46.201-62.54-37.991-99.05-18.29 32.53-12.63 75.61 10.12 104.92-23.48-20.09-36.389-50.99-38.659-81.47-3.21-47.91 25.939-95.63 69.519-115.43 29.61-14.68 64.57-16.42 96.07-6.9797-47.58-31.97-116.74-26.81-159.03 12.37-5.9 5.8-10.301 14.759-20.241 13.359-19.97 12.84-31.629 36.07-40.789 56.12-7.1-55.66 28.51-114.28 82.33-131.51 12.33-4.4275 25.21-6.4863 38.064-6.4234zm209.65 66.184c44.87 15.52 78.45 59.36 82.15 106.73 5.85 51.52-25.76 103.85-73.25 124.04 13.76-29.06 20.651-61.74 17.261-93.82 1.53-25.79-15.931-48.551-15.011-73.261 3.24-21.93-3.26-43.539-11.15-63.689zm-91.33 10.267c-1.0689 0.0188-2.2669 0.17438-3.6094 0.48282 5.21 12.49 6.9394 25.98 10.809 38.77 0.45-6.05 1.0003-12.121 1.3203-18.141 0.0725-8.7906 1.8124-21.294-8.5203-21.113zm-240.25 3.8219c4.48 3.41 0.4106 15.001 1.4406 21.291-37.16 26.54-57.211 75.38-47.611 120.27 9.07 50.19 52.04 90.37 101.27 100.32 9.7-1 14.87 8.6994 20.68 14.709 7.52 8.59 17.381 14.711 25.691 22.341 38.26 24.61 86.549 36.219 131.11 23.919 43.93-9.8 81.01-40.55 104.15-78.2 7.87 92.55-63.289 183.64-155.66 196.68-72.37 12.93-150.12-19.75-192.63-79.37 56.99 25.29 126.92 23.819 180.94-6.2906-72.71 16.82-153.94-9.2591-200.76-67.939-42.43-50.91-54.25-125.45-28.93-186.79 12.29-31.86 34.139-59.311 60.309-80.941zm184.43 2.8266c-1.8749-0.0223-3.7816 0.0816-5.7172 0.32344-4.73 0.79-9.0913 2.88-13.231 5.2 19.13-2.86 39.911 6.1009 48.041 24.461 13.83 23.21 5.4194 53.009-10.941 71.339 5.78-2.83 10.52-7.2894 15.5-11.259 2.99-4.12 6.3903-8.0806 8.1203-12.941 0.29-7.06 3.8303-13.58 3.8703-20.7 3.2156-27.056-17.519-56.089-45.642-56.423zm-47.028 18.894c-25.18 13.56-38.999 45.82-30.009 73.25 9.04 32.27 46.24 50.77 77.88 41.55 9.59-2.71 19.74-7.2097 26.12-14.83-22.57 9.79-50.4 8.1306-69.7-8.0094-28.66-21.48-29.161-67.321-4.2906-91.961zm-100.87 0.37968c-19.1 39.36-15.35 87.6 8.9 123.77 17.31 26.53 46.13 39.78 73.2 53.5 29.58 16.52 69.11 8.5997 90.7-17.17 5.67-11.68 14.151-17.78 27.111-17.85 44.39-7.67 83.84-40.19 99.03-82.73 4.17-3.91 1.339 7.5906 2.189 9.1406 2.7 67.69-38.559 135.58-101.66 161.5-69.7 31.16-156.7 2.9694-198.83-59.591 1.11 12.03 9.9706 23.88 15.491 35-46.72-23.72-74.261-80.099-63.741-131.49 5.97-29.41 22.939-56.811 47.609-74.081zm139.95 0.36563c-0.69746-0.004-1.3938 0.008-2.0875 0.0344-5.09 0.68-10.531 1.64-14.641 4.95-10.18 10.87-16.079 24.8-14.989 40.12l-0.0312 0.9c0.54 2.6 1.4212 5.16 2.8312 7.45 1.53 2.45 2.8891 5.0209 3.4891 7.9109 3.86 8.32 12.401 13.719 20.841 16.719 0.57 0.17 1.7091 0.49 2.2891 0.65-11.78-9.33-22.02-22.999-20.73-39.139-1.04-19.91 16.45-40.04 37.28-36.68-4.4362-2.0912-9.3693-2.8896-14.252-2.9156zm251.19 145.55c16.72 72.94-19.5 154.89-83.3 194.57 14.43-36.07 21.019-76.599 12.109-114.86-1.18-9.85-4.7797-19.12-6.7797-28.7 7.85-1.62 15.209-4.7809 22.809-7.2109 22.19-8.73 40.761-26.34 55.161-43.8z" fill="#000"/>
<path d="m536.55 413.58c-7.78 2.49-14.311 7.8894-20.241 13.359 9.94 1.4 14.341-7.5594 20.241-13.359zm99.209 27.78c-10.11 5.95-22.729 13.12-21.289 26.92-0.16 6.15 0.39907 24.859 4.2391 25.589l0.0312-0.9c-2.39-14.87 2.2891-31.22 14.989-40.12 4.11-3.31 9.5506-4.27 14.641-4.95 8.63-2.03-10.601-6.0091-12.611-6.5391zm86.991 1.3297c-0.32 6.02-0.87032 12.091-1.3203 18.141 0.03 6.25 0.17032 12.56 0.12032 18.85 1.08 2.91 3.31 5.2194 5.5 7.3594 1.15-14.87 1.05-30.23-4.3-44.35zm-60.681 14.633c-1.7421 0.0651-3.5597 1.4659-4.9484 2.4078-22.65 16.34-18.551 55.38 5.1094 68.88-3.28 2-9.7303-1.4709-14.07-2.0109-0.57999-0.16-1.7191-0.48-2.2891-0.65 2.57 4.51 9.8097 4.93 14.53 7.05 19.33-19.42 20.56-53.319 3.95-74.769-0.7125-0.69062-1.4894-0.9374-2.2812-0.90781zm154.64 17.677c-0.92 24.71 16.541 47.471 15.011 73.261 5.01-24.48-2.161-51.771-15.011-73.261zm-124.65 43.291c-4.98 3.97-9.72 8.4294-15.5 11.259-18.37 4.86 0.64063 7.74 9.9406 5.05 3.39-4.7 5.7394-10.429 5.5594-16.309zm-110.69 2.0797c-3.14 0.42-1.43 4.7703-1.15 6.9703 8.51 19.71 24.53 36.881 44.98 44.241 11.67 0.36 25.24-3.1109 34.05-9.6609-31.64 9.22-68.84-9.28-77.88-41.55zm-61.961 50.9c3.6 12.39 7.7909 25.12 15.461 35.62 17.54 10.05 37.609 16.11 57.739 17.88-27.07-13.72-55.89-26.97-73.2-53.5zm191.01 18.48c-12.96 0.07-21.441 6.17-27.111 17.85 9.48-2.81 23.671-10.64 27.111-17.85zm136.07 47.47c-7.6 2.43-14.959 5.5909-22.809 7.2109 2 9.58 5.5997 18.85 6.7797 28.7 8.44-5.77 10.79-24.861 16.03-35.911zm-315.64 29.995c-0.5721-0.0176-1.161 0.003-1.7672 0.0656 12.75 15.17 28.93 27.69 46.37 37.05-8.31-7.63-18.171-13.751-25.691-22.341-5.4469-5.6344-10.331-14.511-18.912-14.775zm133.19 87.395c-6.49 1.96-13.18 3.7597-19.17 6.9797 3.45 1.34 23.46-6.5897 19.17-6.9797z" fill="#000"/>
</g>
<path d="m661.83 427.51c-2.9913-0.0483-6.0459 0.28219-9.1359 1.0422 30.97-3.87 54.789 27.24 51.359 56.1-0.04 7.12-3.5803 13.64-3.8703 20.7 4.96-9.56 5.78-20.529 5.3-31.119-0.02-2.46-0.19-4.9209-0.7-7.3109-4.235-20.169-22.014-39.074-42.953-39.413zm-28.097 25.342c-12.7 8.9-17.379 25.25-14.989 40.12-1.09-15.32 4.8091-29.25 14.989-40.12zm-12.189 48.47c0.37 2.92 1.5691 5.6609 3.4891 7.9109-0.6-2.89-1.9591-5.4609-3.4891-7.9109z.99608" fill="#000"/>
</svg>
