<?xml version="1.0" encoding="UTF-8"?>
<!DOCTYPE svg PUBLIC "-//W3C//DTD SVG 1.1//EN" "http://www.w3.org/Graphics/SVG/1.1/DTD/svg11.dtd">
<!-- Creator: CorelDRAW 2020 (64-Bit) -->
<svg xmlns="http://www.w3.org/2000/svg" xml:space="preserve" width="0.333331in" height="0.333331in" version="1.1" style="shape-rendering:geometricPrecision; text-rendering:geometricPrecision; image-rendering:optimizeQuality; fill-rule:evenodd; clip-rule:evenodd"
viewBox="0 0 333.33 333.33"
 xmlns:xlink="http://www.w3.org/1999/xlink"
 xmlns:xodm="http://www.corel.com/coreldraw/odm/2003">
 <defs>
  <style type="text/css">
   <![CDATA[
    .fil0 {fill:#282828;fill-rule:nonzero}
   ]]>
  </style>
 </defs>
 <g id="Layer_x0020_1">
  <metadata id="CorelCorpID_0Corel-Layer"/>
  <g id="_2646688853696">
   <path class="fil0" d="M34.8 150.87l14.16 52.91 19.19 -5.13 -14.16 -52.91 -19.18 5.13zm12.57 57.91c-0.39,0 -0.78,-0.11 -1.13,-0.3 -0.52,-0.3 -0.89,-0.79 -1.05,-1.37l-15.32 -57.26c-0.32,-1.2 0.4,-2.43 1.59,-2.75l23.53 -6.3c0.56,-0.15 1.19,-0.07 1.7,0.22 0.52,0.3 0.89,0.79 1.05,1.37l15.32 57.25c0.32,1.2 -0.39,2.43 -1.59,2.75l-23.53 6.3c-0.2,0.05 -0.39,0.08 -0.58,0.08z"/>
   <path class="fil0" d="M71.11 192.4l113.93 2.89c-9.09,-13.76 -16.79,-31.48 -21.87,-50.45 -5.09,-18.94 -7.28,-38.15 -6.29,-54.64l-97.21 59.45 11.44 42.75zm118.35 7.5c-0.01,0 -0.04,0 -0.06,0 -0.02,0 -0.04,0 -0.06,-0l-120.02 -3.04c-1,-0.02 -1.86,-0.7 -2.11,-1.66l-12.32 -46c-0.26,-0.96 0.15,-1.98 1,-2.5l102.41 -62.62c0.72,-0.45 1.65,-0.44 2.37,0.01 0.72,0.45 1.12,1.28 1.04,2.13 -1.67,16.91 0.4,37.31 5.81,57.47 5.35,20.01 13.67,38.56 23.44,52.29 0.47,0.41 0.76,1.01 0.76,1.69 0,1.24 -1.01,2.25 -2.26,2.25z"/>
   <path class="fil0" d="M186.35 48.58c-1.43,0 -2.83,0.18 -4.19,0.54 -19.77,5.3 -26.09,48.49 -13.8,94.3 11.33,42.26 35.43,75.35 54.87,75.35l0 0c1.44,0 2.86,-0.19 4.22,-0.55 19.75,-5.31 26.06,-48.49 13.77,-94.3 -11.3,-42.25 -35.4,-75.35 -54.87,-75.35zm36.89 174.7l0 0c-21.73,0 -47.19,-33.83 -59.22,-78.69 -13.37,-49.82 -5.91,-93.67 16.98,-99.81 1.73,-0.46 3.54,-0.69 5.35,-0.69 21.77,0 47.23,33.82 59.22,78.68 13.37,49.82 5.93,93.67 -16.94,99.81 -1.74,0.47 -3.55,0.7 -5.39,0.7z"/>
   <path class="fil0" d="M194.94 50.51c-11.55,15.7 -13,50.92 -3.41,86.72 9.6,35.81 28.45,65.57 46.28,73.37 11.56,-15.64 13.02,-50.84 3.41,-86.69 -9.61,-35.84 -28.46,-65.62 -46.28,-73.41zm43.6 165.06c-0.26,0 -0.52,-0.04 -0.78,-0.14 -19.87,-7.32 -40.19,-38.28 -50.58,-77.03 -10.38,-38.75 -8.25,-75.74 5.3,-92.04 0.61,-0.74 1.61,-1 2.5,-0.67 19.85,7.31 40.18,38.29 50.57,77.08 10.4,38.79 8.27,75.76 -5.3,92.01 -0.43,0.52 -1.07,0.8 -1.72,0.8z"/>
   <path class="fil0" d="M189.46 128.78c0.65,2.94 1.32,5.72 2.07,8.45 0.69,2.59 1.49,5.34 2.43,8.37 1.94,-0.27 4.01,-0.69 6.17,-1.25 6.1,-1.65 11.52,-4.25 15.25,-7.32 3.2,-2.64 4.73,-5.3 4.19,-7.29 -0.74,-2.77 -5.66,-4.63 -12.23,-4.63 -3.73,0 -7.86,0.58 -11.94,1.68 -2,0.52 -3.98,1.19 -5.93,1.99zm2.91 21.51c-0.97,0 -1.85,-0.63 -2.14,-1.57 -1.21,-3.8 -2.2,-7.18 -3.04,-10.32 -0.91,-3.35 -1.74,-6.78 -2.5,-10.49 -0.22,-1.02 0.31,-2.06 1.27,-2.5 2.69,-1.23 5.48,-2.23 8.29,-2.96 4.44,-1.19 8.98,-1.83 13.1,-1.83 9.04,0 15.23,2.97 16.57,7.95 1.03,3.82 -0.99,8.06 -5.68,11.93 -4.21,3.48 -10.23,6.39 -16.96,8.2 -3.09,0.8 -6.01,1.33 -8.7,1.58 -0.07,0.01 -0.14,0.01 -0.2,0.01z"/>
   <path class="fil0" d="M87.28 197.41l40.62 73.66 17.14 -7.32 -36.32 -65.27 -21.44 -1.07zm39.63 78.78c-0.8,0 -1.56,-0.43 -1.97,-1.17l-43.55 -78.98c-0.39,-0.71 -0.37,-1.59 0.07,-2.28 0.43,-0.69 1.22,-1.06 2.02,-1.06l26.71 1.34c0.78,0.04 1.48,0.48 1.85,1.15l38.14 68.54c0.31,0.56 0.37,1.22 0.16,1.83 -0.21,0.6 -0.66,1.09 -1.25,1.34l-21.31 9.09c-0.29,0.12 -0.58,0.19 -0.88,0.19z"/>
   <path class="fil0" d="M82.4 168.73c-0.99,0 -1.9,-0.66 -2.17,-1.67 -0.32,-1.2 0.39,-2.43 1.59,-2.75l70.45 -18.9c1.18,-0.31 2.43,0.39 2.76,1.59 0.32,1.2 -0.39,2.43 -1.59,2.76l-70.45 18.9c-0.2,0.05 -0.39,0.07 -0.58,0.07z"/>
   <path class="fil0" d="M272.37 112.54c-0.99,0 -1.9,-0.67 -2.17,-1.67 -0.32,-1.2 0.39,-2.43 1.59,-2.75l23.28 -6.23c1.21,-0.32 2.43,0.39 2.76,1.59 0.32,1.2 -0.39,2.43 -1.59,2.75l-23.28 6.23c-0.2,0.05 -0.39,0.08 -0.58,0.08z"/>
   <path class="fil0" d="M301.29 141.12l-24.07 0c-1.24,0 -2.25,-1.01 -2.25,-2.25 0,-1.24 1.01,-2.25 2.25,-2.25l24.07 0c1.24,0 2.25,1 2.25,2.25 0,1.24 -1.01,2.25 -2.25,2.25z"/>
   <path class="fil0" d="M297.71 176.22c-0.19,0 -0.39,-0.03 -0.58,-0.08l-23.25 -6.23c-1.2,-0.32 -1.91,-1.55 -1.59,-2.75 0.32,-1.2 1.57,-1.91 2.75,-1.59l23.25 6.23c1.2,0.32 1.91,1.56 1.59,2.76 -0.27,1.01 -1.18,1.67 -2.17,1.67z"/>
   <path class="fil0" d="M241.91 63.81c-0.57,0 -1.15,-0.22 -1.59,-0.66 -0.88,-0.88 -0.88,-2.3 0,-3.18l17.02 -17.02c0.88,-0.88 2.3,-0.88 3.18,0 0.88,0.88 0.88,2.31 0,3.19l-17.02 17.02c-0.44,0.44 -1.02,0.66 -1.59,0.66z"/>
   <path class="fil0" d="M260.35 86.17c-0.78,0 -1.53,-0.4 -1.95,-1.13 -0.62,-1.07 -0.25,-2.45 0.83,-3.07l20.87 -12.03c1.08,-0.62 2.45,-0.24 3.07,0.83 0.61,1.07 0.25,2.45 -0.83,3.07l-20.87 12.03c-0.35,0.2 -0.74,0.3 -1.12,0.3z"/>
   <path class="fil0" d="M235.54 279.16l-192.74 0c-1.24,0 -2.25,-1.01 -2.25,-2.25 0,-1.24 1.01,-2.25 2.25,-2.25l192.74 0c1.24,0 2.25,1.01 2.25,2.25 0,1.24 -1.01,2.25 -2.25,2.25z"/>
   <path class="fil0" d="M277.69 291.04l-192.7 0c-1.24,0 -2.25,-1.01 -2.25,-2.25 0,-1.24 1.01,-2.25 2.25,-2.25l192.7 0c1.24,0 2.25,1.01 2.25,2.25 0,1.24 -1.01,2.25 -2.25,2.25z"/>
  </g>
 </g>
</svg>
