<?xml version="1.0" encoding="UTF-8"?>
<!DOCTYPE svg PUBLIC "-//W3C//DTD SVG 1.1//EN" "http://www.w3.org/Graphics/SVG/1.1/DTD/svg11.dtd">
<!-- Creator: CorelDRAW 2020 (64-Bit) -->
<svg xmlns="http://www.w3.org/2000/svg" xml:space="preserve" width="0.333331in" height="0.333331in" version="1.1" style="shape-rendering:geometricPrecision; text-rendering:geometricPrecision; image-rendering:optimizeQuality; fill-rule:evenodd; clip-rule:evenodd"
viewBox="0 0 333.33 333.33"
 xmlns:xlink="http://www.w3.org/1999/xlink"
 xmlns:xodm="http://www.corel.com/coreldraw/odm/2003">
 <defs>
  <style type="text/css">
   <![CDATA[
    .fil0 {fill:#282828;fill-rule:nonzero}
   ]]>
  </style>
 </defs>
 <g id="Layer_x0020_1">
  <metadata id="CorelCorpID_0Corel-Layer"/>
  <g id="_2646873268048">
   <path class="fil0" d="M35.02 314.19l199.12 0 0 -282.47 -199.12 0 0 282.47zm201.63 5.02l-204.13 0c-1.39,0 -2.51,-1.13 -2.51,-2.51l0 -287.49c0,-1.38 1.12,-2.5 2.51,-2.5l204.13 0c1.39,0 2.51,1.12 2.51,2.5l0 287.49c0,1.38 -1.12,2.51 -2.51,2.51z"/>
   <path class="fil0" d="M257.14 264.83l20.32 41.85 20.31 -41.85 0 -159.2 -40.64 0 0 159.2zm20.32 50.1c-0.96,0 -1.83,-0.55 -2.26,-1.41l-22.83 -47.02c-0.17,-0.34 -0.25,-0.72 -0.25,-1.09l0 -162.29c0,-1.38 1.12,-2.51 2.51,-2.51l45.65 0c1.38,0 2.5,1.13 2.5,2.51l0 162.29c0,0.38 -0.08,0.75 -0.25,1.09l-22.82 47.02c-0.42,0.86 -1.3,1.41 -2.26,1.41z"/>
   <path class="fil0" d="M274.69 300.98l2.77 5.7 2.77 -5.7c-1.79,-0.17 -3.76,-0.17 -5.54,0zm2.77 13.95c-0.96,0 -1.83,-0.55 -2.26,-1.41l-6.5 -13.39c-0.33,-0.69 -0.34,-1.49 -0,-2.18 0.33,-0.69 0.96,-1.19 1.7,-1.36 4.34,-1 9.75,-1 14.11,0 0.75,0.17 1.37,0.67 1.7,1.36 0.33,0.69 0.33,1.49 0,2.18l-6.49 13.39c-0.42,0.86 -1.3,1.41 -2.26,1.41l0 0z"/>
   <path class="fil0" d="M300.82 267.98c-0.44,0 -0.87,-0.11 -1.27,-0.35l-7.35 -4.36 -4.67 4.03c-0.88,0.76 -2.16,0.81 -3.1,0.13l-7.35 -5.29 -5.06 5.06c-0.47,0.47 -1.11,0.74 -1.77,0.74l-0.01 0c-0.67,0 -1.3,-0.27 -1.77,-0.74l-5.02 -5.06 -7.35 5.29c-1.13,0.82 -2.69,0.56 -3.5,-0.57 -0.81,-1.12 -0.56,-2.69 0.57,-3.5l9.09 -6.54c1,-0.72 2.37,-0.61 3.24,0.27l4.75 4.78 4.8 -4.79c0.87,-0.87 2.24,-0.98 3.24,-0.26l7.47 5.39 4.53 -3.92c0.82,-0.7 2,-0.8 2.92,-0.26l8.9 5.28c1.19,0.7 1.59,2.24 0.88,3.43 -0.47,0.79 -1.3,1.23 -2.16,1.23z"/>
   <path class="fil0" d="M264.86 262.05c-1.39,0 -2.51,-1.12 -2.51,-2.5l0 -156.43c0,-1.38 1.12,-2.51 2.51,-2.51 1.39,0 2.51,1.13 2.51,2.51l0 156.43c0,1.38 -1.12,2.5 -2.51,2.5z"/>
   <path class="fil0" d="M276.63 262.81c-1.38,0 -2.5,-1.12 -2.51,-2.5l-0.72 -157.19c-0,-1.39 1.11,-2.51 2.5,-2.52 0,0 0,0 0.01,0 1.38,0 2.5,1.11 2.51,2.5l0.72 157.19c0,1.39 -1.11,2.51 -2.5,2.52 0,0 -0.01,0 -0.01,0z"/>
   <path class="fil0" d="M288.56 264.64c-1.39,0 -2.5,-1.12 -2.5,-2.51l0 -159.02c0,-1.38 1.12,-2.51 2.5,-2.51 1.39,0 2.51,1.13 2.51,2.51l0 159.02c0,1.39 -1.12,2.51 -2.51,2.51z"/>
   <path class="fil0" d="M257.14 100.61l40.64 0 0 -9.33c0,-5.15 -4.19,-9.34 -9.34,-9.34l-21.96 0c-5.15,0 -9.34,4.19 -9.34,9.34l0 9.33zm43.15 5.02l-45.65 0c-1.39,0 -2.51,-1.12 -2.51,-2.51l0 -11.84c0,-7.91 6.44,-14.35 14.35,-14.35l21.96 0c7.92,0 14.35,6.44 14.35,14.35l0 11.84c0,1.39 -1.12,2.51 -2.5,2.51z"/>
   <path class="fil0" d="M69.33 102.76l130.5 0 0 -27.69 -130.5 0 0 27.69zm133.01 5.01l-135.51 0c-1.39,0 -2.51,-1.12 -2.51,-2.5l0 -32.7c0,-1.39 1.12,-2.51 2.51,-2.51l135.51 0c1.38,0 2.5,1.12 2.5,2.51l0 32.7c0,1.38 -1.12,2.5 -2.5,2.5z"/>
   <path class="fil0" d="M199.82 129.31l-130.48 0c-1.38,0 -2.51,-1.12 -2.51,-2.51 0,-1.39 1.13,-2.51 2.51,-2.51l130.48 0c1.39,0 2.51,1.12 2.51,2.51 0,1.39 -1.12,2.51 -2.51,2.51z"/>
   <path class="fil0" d="M199.82 149.81l-130.48 0c-1.38,0 -2.51,-1.13 -2.51,-2.51 0,-1.39 1.13,-2.51 2.51,-2.51l130.48 0c1.39,0 2.51,1.12 2.51,2.51 0,1.38 -1.12,2.51 -2.51,2.51z"/>
   <path class="fil0" d="M199.82 170.3l-89.81 0c-1.39,0 -2.51,-1.12 -2.51,-2.5 0,-1.39 1.12,-2.51 2.51,-2.51l89.81 0c1.39,0 2.51,1.12 2.51,2.51 0,1.38 -1.12,2.5 -2.51,2.5z"/>
   <path class="fil0" d="M167.16 190.77l-97.82 0c-1.38,0 -2.51,-1.12 -2.51,-2.51 0,-1.39 1.13,-2.51 2.51,-2.51l97.82 0c1.38,0 2.51,1.12 2.51,2.51 0,1.39 -1.13,2.51 -2.51,2.51z"/>
   <path class="fil0" d="M199.82 211.26l-130.48 0c-1.38,0 -2.51,-1.12 -2.51,-2.51 0,-1.39 1.13,-2.51 2.51,-2.51l130.48 0c1.39,0 2.51,1.12 2.51,2.51 0,1.39 -1.12,2.51 -2.51,2.51z"/>
   <path class="fil0" d="M199.82 231.76l-103.09 0c-1.38,0 -2.5,-1.12 -2.5,-2.51 0,-1.39 1.12,-2.51 2.5,-2.51l103.09 0c1.39,0 2.51,1.12 2.51,2.51 0,1.39 -1.12,2.51 -2.51,2.51z"/>
   <path class="fil0" d="M199.82 252.22l-130.48 0c-1.38,0 -2.51,-1.12 -2.51,-2.51 0,-1.38 1.13,-2.51 2.51,-2.51l130.48 0c1.39,0 2.51,1.13 2.51,2.51 0,1.39 -1.12,2.51 -2.51,2.51z"/>
   <path class="fil0" d="M53.69 44.28c-1.39,0 -2.51,-1.12 -2.51,-2.51l0 -25.13c0,-1.39 1.12,-2.51 2.51,-2.51 1.39,0 2.51,1.12 2.51,2.51l0 25.13c0,1.39 -1.12,2.51 -2.51,2.51zm26.96 0c-1.39,0 -2.51,-1.12 -2.51,-2.51l0 -25.13c0,-1.39 1.12,-2.51 2.51,-2.51 1.39,0 2.51,1.12 2.51,2.51l0 25.13c0,1.39 -1.12,2.51 -2.51,2.51zm26.96 0c-1.39,0 -2.51,-1.12 -2.51,-2.51l0 -25.13c0,-1.39 1.12,-2.51 2.51,-2.51 1.39,0 2.51,1.12 2.51,2.51l0 25.13c0,1.39 -1.12,2.51 -2.51,2.51zm26.95 0c-1.38,0 -2.51,-1.12 -2.51,-2.51l0 -25.13c0,-1.39 1.13,-2.51 2.51,-2.51 1.39,0 2.51,1.12 2.51,2.51l0 25.13c0,1.39 -1.12,2.51 -2.51,2.51zm26.96 0c-1.39,0 -2.51,-1.12 -2.51,-2.51l0 -25.13c0,-1.39 1.12,-2.51 2.51,-2.51 1.39,0 2.5,1.12 2.5,2.51l0 25.13c0,1.39 -1.12,2.51 -2.5,2.51zm26.95 0c-1.39,0 -2.51,-1.12 -2.51,-2.51l0 -25.13c0,-1.39 1.12,-2.51 2.51,-2.51 1.38,0 2.5,1.12 2.5,2.51l0 25.13c0,1.39 -1.12,2.51 -2.5,2.51zm26.96 0c-1.39,0 -2.5,-1.12 -2.5,-2.51l0 -25.13c0,-1.39 1.12,-2.51 2.5,-2.51 1.39,0 2.51,1.12 2.51,2.51l0 25.13c0,1.39 -1.12,2.51 -2.51,2.51z"/>
  </g>
 </g>
</svg>
