<?xml version="1.0" encoding="UTF-8"?>
<!DOCTYPE svg PUBLIC "-//W3C//DTD SVG 1.1//EN" "http://www.w3.org/Graphics/SVG/1.1/DTD/svg11.dtd">
<!-- Creator: CorelDRAW 2020 (64-Bit) -->
<svg xmlns="http://www.w3.org/2000/svg" xml:space="preserve" width="0.333331in" height="0.333331in" version="1.1" style="shape-rendering:geometricPrecision; text-rendering:geometricPrecision; image-rendering:optimizeQuality; fill-rule:evenodd; clip-rule:evenodd"
viewBox="0 0 333.33 333.33"
 xmlns:xlink="http://www.w3.org/1999/xlink"
 xmlns:xodm="http://www.corel.com/coreldraw/odm/2003">
 <defs>
  <style type="text/css">
   <![CDATA[
    .fil1 {fill:black}
    .fil0 {fill:#282828;fill-rule:nonzero}
   ]]>
  </style>
 </defs>
 <g id="Layer_x0020_1">
  <metadata id="CorelCorpID_0Corel-Layer"/>
  <g id="_2646689293024">
   <path class="fil0" d="M47.48 38.67c-6.66,0 -12.08,5.41 -12.08,12.08l0 171.64c0,6.67 5.42,12.09 12.08,12.09l238.37 0c6.66,0 12.08,-5.42 12.08,-12.09l0 -171.64c0,-6.67 -5.42,-12.08 -12.08,-12.08l-55.51 0 0 95.19c0,1.54 -1.26,2.8 -2.81,2.8l-116.39 0c-1.55,0 -2.8,-1.26 -2.8,-2.8l0 -95.19 -60.86 0zm238.37 201.41l-238.37 0c-9.75,0 -17.68,-7.94 -17.68,-17.69l0 -171.64c0,-9.75 7.93,-17.68 17.68,-17.68l63.66 0c1.55,0 2.8,1.25 2.8,2.8l0 95.19 110.79 0 0 -95.19c0,-1.55 1.25,-2.8 2.8,-2.8l58.31 0c9.75,0 17.69,7.93 17.69,17.68l0 171.64c0,9.75 -7.94,17.69 -17.69,17.69z"/>
   <path class="fil0" d="M127.05 282.87l79.22 0 -11.25 -42.8 -56.72 0 -11.26 42.8zm82.94 5.6c-0.02,0 -0.05,0 -0.08,0l-86.48 0c-0.87,0 -1.69,-0.41 -2.22,-1.09 -0.53,-0.68 -0.71,-1.58 -0.49,-2.41l12.72 -48.41c0.32,-1.23 1.44,-2.09 2.71,-2.09l61.03 0c1.27,0 2.38,0.86 2.7,2.09l12.56 47.77c0.22,0.41 0.34,0.86 0.34,1.35 0,1.55 -1.25,2.8 -2.8,2.8z"/>
   <path class="fil0" d="M87.98 294.67l157.37 0 0 -6.19 -157.37 0 0 6.19zm160.17 5.6l-162.97 0c-1.55,0 -2.8,-1.26 -2.8,-2.8l0 -11.79c0,-1.55 1.25,-2.8 2.8,-2.8l162.97 0c1.55,0 2.8,1.26 2.8,2.8l0 11.79c0,1.54 -1.25,2.8 -2.8,2.8z"/>
   <path class="fil0" d="M50.07 188.32l232.59 0 0 -134.53 -52.33 0 0 80.06c0,1.54 -1.26,2.8 -2.81,2.8l-116.39 0c-1.55,0 -2.8,-1.26 -2.8,-2.8l0 -80.06 -58.27 0 0 134.53zm235.39 5.6l-238.19 0c-1.54,0 -2.8,-1.25 -2.8,-2.8l0 -140.13c0,-1.55 1.25,-2.8 2.8,-2.8l63.87 0c1.55,0 2.8,1.25 2.8,2.8l0 80.06 110.79 0 0 -80.06c0,-1.55 1.25,-2.8 2.8,-2.8l57.93 0c1.55,0 2.8,1.25 2.8,2.8l0 140.13c0,1.55 -1.25,2.8 -2.8,2.8z"/>
   <path class="fil0" d="M166.69 218.96c-1.56,0 -2.83,1.26 -2.83,2.81 0,1.54 1.27,2.79 2.83,2.79 1.54,0 2.79,-1.25 2.79,-2.79 0,-1.55 -1.25,-2.81 -2.79,-2.81zm0 11.2c-4.65,0 -8.43,-3.77 -8.43,-8.39 0,-4.63 3.78,-8.41 8.43,-8.41 4.63,0 8.39,3.77 8.39,8.41 0,4.63 -3.77,8.39 -8.39,8.39z"/>
   <polygon class="fil1" points="198.48,74.2 176,62.56 153.53,50.93 153.53,74.2 153.53,97.46 176,85.83 "/>
  </g>
 </g>
</svg>
